<?xml version="1.0" encoding="utf-8"?>
<!-- Generator: Adobe Illustrator 24.0.2, SVG Export Plug-In . SVG Version: 6.00 Build 0)  -->
<svg xmlns="http://www.w3.org/2000/svg" xmlns:xlink="http://www.w3.org/1999/xlink" version="1.1" id="Blog" x="0px" y="0px" viewBox="0 0 489.67 133.49" style="enable-background:new 0 0 489.67 133.49;" xml:space="preserve">
<style type="text/css">
	.st0{fill:#FFFFFF;}
	.st1{fill-rule:evenodd;clip-rule:evenodd;fill:url(#brown_2_);}
	.st2{fill:#5C4638;}
	.st3{fill-rule:evenodd;clip-rule:evenodd;fill:#5C4638;}
	.st4{fill:url(#SVGID_1_);}
	.st5{fill:#C9BDA9;}
	.st6{fill-rule:evenodd;clip-rule:evenodd;fill:url(#SVGID_2_);}
	.st7{fill-rule:evenodd;clip-rule:evenodd;fill:url(#SVGID_3_);}
	.st8{fill:#AA9775;}
	.st9{fill-rule:evenodd;clip-rule:evenodd;fill:url(#SVGID_4_);}
	.st10{fill:url(#SVGID_5_);}
	.st11{fill:#B6A686;}
	.st12{fill:#CCBD9D;}
	.st13{fill:url(#_x35__2_);}
	.st14{fill:url(#SVGID_6_);}
	.st15{fill:#F9F4DF;}
	.st16{fill:#282828;}
</style>
<g>
	<path id="base_1_" class="st0" d="M308.61,44.99c-2.42-2.74-5.64-4.24-9.06-4.24h0c-0.25,0-0.5,0.01-0.75,0.02L88.13,54.53l-0.04,0   l-0.04,0c-10.3,1.01-16.19,7.26-17.03,18.07l-0.1,1.25c-0.2-0.02-0.4-0.04-0.6-0.04c-0.3,0-0.59,0.03-0.88,0.09   c-0.26,0.03-0.54,0.09-0.84,0.21l0-4.41c2.19-1.42,3.03-5.05,4.34-11.47c0.17-0.83,0.34-1.68,0.52-2.52   c1.6-3.58,3.98-6.9,6.29-10.12c3.98-5.55,8.09-11.3,7.67-18.06l-0.27-0.99c-4.49-8.79-10.5-14.41-18.35-17.17   c-2.36-0.85-4.48-1.29-6.19-1.65c-0.7-0.15-1.31-0.28-1.82-0.41L60.6,7.25c-4.38-0.81-9.11-1.56-13.98-1.56   c-2.07,0-4,0.13-5.9,0.41c-2.39,0.35-4.84,1.46-7.43,2.63c-2.78,1.26-5.65,2.56-8.17,2.74l-0.62,0.12   c-5.56,1.83-7.38,4.39-8.84,6.44c-0.1,0.15-0.21,0.29-0.31,0.44L15.1,18.9c-1.82,3.96-2.28,8.04-1.36,12.11l0.06,0.2   c0.68,2.17,1.49,4.27,2.27,6.31c1.55,4.04,3.01,7.86,3.59,12.14l0.3,0.9c0.59,1.04,1.05,2.65,1.55,4.34   c1.02,3.51,2.27,7.86,5.66,11.31l0.01,0.35v4.8c0,0-12.56,6.07-16.21,8.78c-1.85,1.37-4.26,4.71,0.17,7.52   c3.4,2.16,14.26,7.83,14.23,8.15c-0.38,3.87,0.95,7.34,2.19,8.8c2.05,2.42,5.41,3.8,9.24,3.8c3.66,0,7.26-1.27,9.64-3.4   c0.6-0.53,1.1-1.1,1.53-1.7c0.43,0.59,0.94,1.17,1.53,1.7c2.38,2.13,5.98,3.4,9.64,3.4c3.82,0,7.19-1.39,9.24-3.8   c1.35-1.59,2.8-4.42,2.06-8.86l-0.13-0.73c0.07,0,1.95-0.93,1.95-0.93s0,0.01,0.01,0.16c0.21,2.42,0.58,6.66,6.96,7.21l0.07,0.01   l0.07,0l219.53,5.91c0.11,0,0.22,0,0.33,0c3.49,0,6.77-1.47,9.24-4.15c2.41-2.61,3.73-6.02,3.73-9.62V54.54   C312.2,51,310.92,47.61,308.61,44.99z"/>
	<linearGradient id="brown_2_" gradientUnits="userSpaceOnUse" x1="73.5396" y1="74.0714" x2="309.6665" y2="74.0714">
		<stop offset="0" style="stop-color:#3B2519"/>
		<stop offset="0.1288" style="stop-color:#4B2D1C"/>
		<stop offset="0.3328" style="stop-color:#60361D"/>
		<stop offset="0.5096" style="stop-color:#6F3C1D"/>
		<stop offset="0.6382" style="stop-color:#743E1D"/>
		<stop offset="0.7254" style="stop-color:#703C1D"/>
		<stop offset="0.8265" style="stop-color:#65381C"/>
		<stop offset="0.934" style="stop-color:#54301A"/>
		<stop offset="1" style="stop-color:#482A17"/>
	</linearGradient>
	<path id="brown_1_" class="st1" d="M88.3,57.05L298.96,43.3c5.87-0.38,10.7,5.06,10.7,11.24v39.08c0,6.18-4.82,11.39-10.7,11.24   L79.43,98.95c-4.52-0.39-4.48-3.04-4.72-5.61c15.53-2.81,6.75-21.51-1.17-20.54C74.41,61.55,80.92,57.78,88.3,57.05L88.3,57.05z"/>
	<g id="face_1_">
		<g>
			<path class="st2" d="M73.87,77.54L73.87,77.54c2.62,0.86,4.78,2.08,6.46,3.65c0.36,0.26,0.55,0.56,0.55,0.9     c0,0.56-0.42,1.1-1.26,1.62c-0.99,0.62-2.46,1.72-4.42,3.29c-1.81,1.44-3.27,2.5-4.39,3.16c-0.22,0.11-0.43,0.16-0.65,0.16     c-0.32,0-0.6-0.11-0.84-0.34c-0.24-0.23-0.36-0.49-0.36-0.79c0-0.26,0.1-0.49,0.29-0.71c0.26-0.43,0.86-0.9,1.81-1.42     c0.62-0.32,1.4-0.85,2.32-1.58c1.12-0.9,1.89-1.5,2.32-1.77c0.95-0.47,1.42-0.81,1.42-1c0-0.04-0.01-0.09-0.03-0.13     c-0.52-0.9-1.37-1.58-2.55-2.03c-1.05-0.3-2.12-0.61-3.2-0.94c-1.27-0.39-2.21-0.93-2.81-1.65c-0.04-0.06-0.06-0.14-0.06-0.22     c0-0.26,0.15-0.54,0.45-0.86c0.3-0.31,0.59-0.47,0.87-0.47c0.17-0.04,0.34-0.06,0.52-0.06c0.5,0,1.11,0.15,1.84,0.45     C72.72,77.04,73.29,77.28,73.87,77.54 M23.51,76.48c0.49,0,0.9,0.13,1.21,0.39c0.31,0.26,0.47,0.56,0.47,0.9     c0,0.26-0.1,0.48-0.29,0.68c-0.71,0.77-2.17,1.6-4.39,2.49c-2.05,0.82-3.42,1.76-4.13,2.84c1.21,0.73,2.79,1.53,4.75,2.39     c3.12,1.4,4.74,2.12,4.84,2.16c0.41,0.19,0.61,0.5,0.61,0.94c0.04,0.54-0.17,0.99-0.63,1.37c-0.46,0.38-1,0.57-1.6,0.57     c-0.24,0-0.46-0.04-0.68-0.13c-0.26-0.26-0.61-0.56-1.07-0.9c-2.84-1.55-5.87-3.02-9.1-4.42c-0.32-0.13-0.65-0.25-0.97-0.35     c-0.41-0.19-0.65-0.47-0.71-0.84c0-0.93,0.41-1.79,1.23-2.58c0.99-0.8,2.63-1.71,4.91-2.74c2.22-0.99,3.82-1.9,4.81-2.74     C22.77,76.48,23.02,76.48,23.51,76.48z"/>
			<path class="st2" d="M43.77,76.44c-0.54-0.77-1.03-1.32-1.49-1.64c-0.45-0.32-0.98-0.48-1.59-0.48c-0.22,0-0.4,0.03-0.55,0.1     l-3.58,1.24c-0.2,0.07-0.44,0.1-0.7,0.1c-0.47,0-0.85-0.11-1.15-0.33c-0.29-0.22-0.65-0.66-1.07-1.31l-0.98,0.65     c0.62,0.89,1.15,1.48,1.59,1.78C34.67,76.85,35.22,77,35.9,77c0.3,0,0.6-0.04,0.88-0.13l3.28-1.19c0.22-0.08,0.46-0.13,0.71-0.13     c0.42,0,0.76,0.08,1.01,0.26c0.25,0.17,0.61,0.56,1.06,1.18L43.77,76.44"/>
			<path class="st3" d="M67.92,96.19c1.8,10.75-11.35,11.79-16.75,6.96c-3.73-3.33-2.68-7.97,2.67-7.69     C58.56,95.71,61.33,101.78,67.92,96.19"/>
			<path class="st3" d="M27.99,96.19c-1.8,10.75,11.35,11.79,16.75,6.96c3.73-3.33,2.68-7.97-2.67-7.69     C37.36,95.71,34.59,101.78,27.99,96.19"/>
			<path class="st2" d="M40.91,80.58c-0.6-0.42-1.34-0.63-2.22-0.63c-1.06,0-1.92,0.32-2.59,0.95c-0.78,0.7-1.08,1.71-0.9,3.01     c0.11,1.06,0.48,1.99,1.14,2.8c0.65,0.81,1.44,1.22,2.35,1.22c0.56,0,1.14-0.16,1.74-0.48c1.06-0.63,1.59-1.85,1.59-3.65     C42.02,82.19,41.65,81.11,40.91,80.58z M38.64,84.87c-0.62,0-1.13-0.51-1.13-1.13c0-0.62,0.51-1.13,1.13-1.13     c0.62,0,1.13,0.5,1.13,1.13C39.77,84.36,39.26,84.87,38.64,84.87z"/>
			<path class="st2" d="M48.76,94.53c0.34,0,0.65-0.06,0.95-0.18c0.3-0.12,0.57-0.26,0.82-0.46c0.25-0.19,0.48-0.4,0.68-0.64     c0.2-0.23,0.38-0.47,0.53-0.71c0.15-0.24,0.27-0.47,0.37-0.69c0.09-0.21,0.16-0.4,0.2-0.55c-0.01-0.03-0.02-0.06-0.04-0.1     c-0.02-0.04-0.04-0.07-0.07-0.1c-0.02-0.03-0.04-0.04-0.05-0.04c-0.28,0.52-0.6,0.95-0.95,1.28c-0.36,0.33-0.75,0.57-1.17,0.73     c-0.43,0.16-0.89,0.23-1.39,0.23c-0.42,0-0.81-0.06-1.15-0.17c-0.34-0.11-0.64-0.27-0.91-0.48c-0.27-0.21-0.52-0.46-0.73-0.75     c-0.22-0.29-0.42-0.61-0.6-0.97c-0.01,0-0.03,0.01-0.05,0.03c-0.02,0.03-0.04,0.06-0.06,0.09c-0.02,0.03-0.03,0.06-0.03,0.08     c0.17,0.46,0.37,0.9,0.62,1.31c0.24,0.41,0.51,0.77,0.82,1.08c0.31,0.31,0.65,0.56,1.02,0.74     C47.93,94.44,48.33,94.53,48.76,94.53"/>
			<path class="st2" d="M59.25,80.51c-0.6-0.42-1.34-0.63-2.22-0.63c-1.06,0-1.92,0.32-2.59,0.95c-0.78,0.71-1.07,1.71-0.9,3.02     c0.11,1.06,0.49,1.99,1.14,2.8c0.65,0.81,1.44,1.22,2.35,1.22c0.56,0,1.15-0.16,1.75-0.48c1.06-0.64,1.59-1.85,1.59-3.65     C60.36,82.11,59.99,81.03,59.25,80.51z M56.65,84.99c-0.62,0-1.13-0.51-1.13-1.13c0-0.62,0.51-1.13,1.13-1.13     c0.62,0,1.13,0.51,1.13,1.13C57.78,84.49,57.27,84.99,56.65,84.99z"/>
		</g>
		<g id="Cap_1_">
			<g>
				<linearGradient id="SVGID_1_" gradientUnits="userSpaceOnUse" x1="15.9847" y1="37.9854" x2="84.9066" y2="37.9854">
					<stop offset="0.0397" style="stop-color:#FAFAED"/>
					<stop offset="0.4183" style="stop-color:#FAFAED"/>
					<stop offset="0.4894" style="stop-color:#F3F0E1"/>
					<stop offset="0.6114" style="stop-color:#E5DDC7"/>
					<stop offset="0.7686" style="stop-color:#CFC09F"/>
					<stop offset="0.7969" style="stop-color:#CBBB98"/>
					<stop offset="1" style="stop-color:#BBA786"/>
				</linearGradient>
				<path class="st4" d="M67.01,67.68c1.84-0.8,2.78-7,4.02-12.77C75.5,44.7,85.48,37.18,84.88,27.68      C76.69,11.65,65.22,11.08,60.31,9.8C53.96,8.63,47.6,7.75,41.25,8.67c-4.52,0.66-10.37,5.01-15.78,5.39      c-5.16,1.7-6.45,3.97-7.89,5.96c-1.61,3.5-1.98,7-1.19,10.5c1.98,6.29,5.01,12.01,5.96,18.87c2.08,3.69,2.23,10.64,7,15.32      C43.93,57.75,55.84,63.14,67.01,67.68z"/>
				<path class="st5" d="M66.84,67.76l-1.37-0.56c-10.96-4.47-22.29-9.1-36.26-2.45l-0.08,0.04l-0.06-0.06      c-3.11-3.05-4.25-7-5.26-10.49c-0.53-1.84-1.03-3.57-1.76-4.86l-0.01-0.04c-0.63-4.56-2.2-8.68-3.73-12.68      c-0.77-2-1.56-4.07-2.22-6.17c-0.8-3.55-0.4-7.11,1.2-10.59c0.12-0.17,0.23-0.32,0.34-0.47c1.32-1.86,2.82-3.97,7.63-5.55      c2.98-0.21,6.06-1.6,9.03-2.95c2.43-1.1,4.73-2.14,6.78-2.44c6.04-0.87,12-0.17,19.1,1.14c0.57,0.15,1.2,0.28,1.94,0.44      c5.4,1.14,15.44,3.26,22.72,17.5l0.01,0.05c0.37,5.91-3.32,11.06-7.22,16.51c-2.43,3.39-4.93,6.89-6.64,10.79      c-0.19,0.91-0.38,1.85-0.57,2.78c-1.03,5.02-1.91,9.36-3.51,10.05L66.84,67.76z M43.43,61.17c7.94,0,15.12,2.93,22.14,5.8      l1.27,0.52c1.45-0.72,2.36-5.16,3.32-9.85c0.19-0.93,0.38-1.87,0.58-2.8c1.72-3.95,4.24-7.46,6.67-10.85      c3.87-5.41,7.53-10.51,7.18-16.32C77.36,13.53,67.78,11.51,62.05,10.3c-0.74-0.16-1.37-0.29-1.94-0.44      c-7.06-1.3-13.01-2-19.01-1.13c-2.01,0.29-4.3,1.33-6.71,2.42c-2.99,1.36-6.08,2.76-9.08,2.97c-4.71,1.56-6.18,3.63-7.48,5.45      c-0.11,0.15-0.22,0.3-0.32,0.45c-1.56,3.4-1.96,6.91-1.17,10.4c0.66,2.08,1.45,4.15,2.21,6.15c1.53,4,3.11,8.13,3.74,12.71      c0.74,1.31,1.24,3.05,1.77,4.89c0.99,3.43,2.12,7.32,5.13,10.32C34.25,62.1,38.96,61.17,43.43,61.17z"/>
			</g>
			<g>
				<linearGradient id="SVGID_2_" gradientUnits="userSpaceOnUse" x1="29.6127" y1="62.7049" x2="66.2106" y2="62.7049">
					<stop offset="0" style="stop-color:#FAFAED"/>
					<stop offset="0.0526" style="stop-color:#FAFAED"/>
					<stop offset="0.3844" style="stop-color:#FAFAED"/>
					<stop offset="0.5096" style="stop-color:#F5F3E5"/>
					<stop offset="0.6972" style="stop-color:#EBE4D0"/>
					<stop offset="0.923" style="stop-color:#DBCFB2"/>
					<stop offset="0.9987" style="stop-color:#D5C7A7"/>
				</linearGradient>
				<path class="st6" d="M29.76,68.76c5.26-2.79,18.41-9.69,36.04,2.41c0.5-2.84,0.55-5.67,0.15-8.51      c-0.5-6.71-26.8-14.92-36.33-0.14L29.76,68.76"/>
				<path class="st5" d="M65.83,71.26l-0.07-0.05c-7.54-5.18-15.15-7.47-22.62-6.78C36.97,65,32.3,67.47,29.79,68.81l-0.08,0.04      l0-0.09l-0.15-6.26l0.01-0.01c2.57-3.98,6.48-6.58,11.61-7.7c4.21-0.92,9.12-0.77,13.82,0.43c6.27,1.6,10.79,4.66,10.99,7.44      c0.4,2.83,0.34,5.7-0.15,8.53L65.83,71.26z M45.73,64.21c6.63,0,13.35,2.31,20.02,6.87c0.48-2.79,0.53-5.62,0.14-8.41      c-0.2-2.7-4.79-5.79-10.91-7.35c-4.69-1.19-9.58-1.35-13.77-0.42c-5.1,1.12-8.98,3.69-11.54,7.64l0.15,6.14      c2.54-1.34,7.19-3.79,13.33-4.35C44,64.24,44.87,64.21,45.73,64.21z"/>
			</g>
			<g>
				<g id="_x31__1_">
					<linearGradient id="SVGID_3_" gradientUnits="userSpaceOnUse" x1="17.5658" y1="30.1436" x2="24.2051" y2="30.1436">
						<stop offset="0" style="stop-color:#E9DCCB"/>
						<stop offset="1" style="stop-color:#F3EDDF"/>
					</linearGradient>
					<path class="st7" d="M22.36,18.96c-0.81,4.09,2.81,16.99,1.6,23.77c-0.62-3.55-2.88-10.6-2.79-14.57       c-1.1-2.38-2.2-5.27-3.39-6.38C16.68,20.79,20.25,14.9,22.36,18.96"/>
					<path class="st8" d="M30.61,60.51c-0.01-0.01-0.01-0.02-0.02-0.02c-4.77-5.58-6.73-15.18-8.39-23.28       c-1.31-6.43-2.43-11.91-4.6-13.64l-0.01-0.01c-0.27-0.36-0.43-0.77-0.49-1.21c-0.1-0.76,0.09-1.6,0.47-2.37       c0.39-0.77,0.97-1.47,1.66-1.95c0.48-0.33,1.01-0.55,1.56-0.62l0.02,0.11c-0.53,0.06-1.05,0.28-1.51,0.6       c-0.51,0.7-0.9,1.15-1.27,1.91c-1.06,2.12,1.14,2.01,2.01,3.17c2.19,1.76,2.38,7.55,3.69,14c1.65,8.09,2.19,17.68,6.94,23.23h0       c0.01,0.01,0.01,0.01,0.01,0.02L30.61,60.51"/>
				</g>
				<g id="_x32__1_">
					<linearGradient id="SVGID_4_" gradientUnits="userSpaceOnUse" x1="27.3873" y1="22.9319" x2="31.0321" y2="28.2507">
						<stop offset="0" style="stop-color:#EDE2D2"/>
						<stop offset="0.4318" style="stop-color:#EFE7DA"/>
						<stop offset="1" style="stop-color:#F0EADF"/>
					</linearGradient>
					<path class="st9" d="M30.43,17.29c-0.81,4.09,1.26,13.47,0.05,20.25c-0.62-3.55-2.88-10.6-2.79-14.57       c-1.1-2.38-2.41-5.1-3.18-6.51C23.82,15.21,27.44,13.5,30.43,17.29"/>
					<path class="st8" d="M28.85,15.86c-1.04-0.71-1.45-0.67-2.34-0.55c-0.37,0.05-0.68,0.16-0.92,0.34       c-0.23,0.17-0.39,0.41-0.45,0.7c-0.05,0.43-0.33,0.5,0.06,1.28l0,0c2.65,3.59,4.66,9.53,5.22,15.86       c0.71,8.03-0.22,16.91,5.09,23.21l-0.09,0.07c-5.34-6.32-6.12-15.23-6.83-23.27c-0.56-6.32-1.07-12.1-3.7-15.66l0,0       c-0.54-0.73-0.72-1.35-0.63-1.82c0.06-0.32,0.23-0.58,0.49-0.76c0.25-0.19,0.59-0.31,0.98-0.36c0.92-0.12,2.12,0.16,3.19,0.88       L28.85,15.86"/>
				</g>
				<g id="_x33__1_">
					<linearGradient id="SVGID_5_" gradientUnits="userSpaceOnUse" x1="37.4073" y1="27.0488" x2="44.1586" y2="27.0488">
						<stop offset="0" style="stop-color:#EDE2D2"/>
						<stop offset="1" style="stop-color:#EEE5D6"/>
					</linearGradient>
					<path class="st10" d="M43.44,10.12c2.45,4.1-2.06,22.55-2.86,34.15C40.51,45.24,31.85,5.99,43.44,10.12"/>
					<path class="st11" d="M42.41,54.5c-2.8-7.29-5.8-19.95-6.27-29.94c-0.18-3.94,0.03-7.46,0.8-10.08       c0.78-2.63,2.12-4.35,4.21-4.66c0.68-0.1,1.45-0.05,2.29,0.17l-0.03,0.1c-0.83-0.22-1.6-0.03-2.27,0.07       c-1.75,0.39-1.54,1.49-2.68,3.96c-0.77,2.61-1.19,5.84-0.85,9.77c1.49,9.74,3.32,23.01,4.9,30.57L42.41,54.5"/>
				</g>
				<path id="_x34__1_" class="st12" d="M50.55,53.87c-0.11-0.79-0.22-1.6-0.33-2.41c-1.82-13.13-4.05-29.2,3.76-40.75l0.1,0.06      c-3.2,8.54-3.64,24.82-4.02,30.08c-0.16,2.27,0.1,7.13,0.27,10.6c0.11,0.81,0.22,1.62,0.33,2.41L50.55,53.87"/>
				<linearGradient id="_x35__2_" gradientUnits="userSpaceOnUse" x1="63.5297" y1="26.5962" x2="63.3548" y2="35.5217">
					<stop offset="0" style="stop-color:#BBA78B"/>
					<stop offset="1" style="stop-color:#C8BBA1"/>
				</linearGradient>
				<path id="_x35__1_" class="st13" d="M59.04,55.57c0.27-6.81,1-14.77,1.65-21.66c1.64-8.7,6.07-12.82,7.22-21.61l0.02-0.11      c-4.21,6.88-6.57,14.32-7.79,21.74c-1.22,7.43-1.31,14.84-0.99,21.64L59.04,55.57"/>
				<g id="_x36__1_">
					<linearGradient id="SVGID_6_" gradientUnits="userSpaceOnUse" x1="67.5082" y1="38.8107" x2="79.4951" y2="38.8107">
						<stop offset="0" style="stop-color:#BEAF9A"/>
						<stop offset="0.3025" style="stop-color:#C0B29E"/>
						<stop offset="1" style="stop-color:#C3B6A2"/>
					</linearGradient>
					<path class="st14" d="M79.5,22.62C75.97,33.53,71.76,44.21,67.51,55C67.62,40.71,75.29,23.5,79.5,22.62"/>
					<path class="st8" d="M65.5,59.82c1.86-1.94,2-4.92,2.15-8.37c0.14-3.2,0.31-6.79,1.88-10.35c0.04-0.13,0.11-0.36,0.19-0.66       c1.03-3.61,5.18-18.13,10.03-17.87l-0.01,0.11c-3.8-0.14-8.62,14.22-9.77,17.8c-0.09,0.3-0.11,0.49-0.15,0.63l0,0.01       c-1.36,3.54-1.44,7.15-1.89,10.34c-0.16,3.47-0.45,6.47-2.34,8.44L65.5,59.82"/>
				</g>
			</g>
		</g>
	</g>
	<g id="name_1_">
		<path class="st0" d="M112.97,87.77c0,0.23-0.15,0.53-0.45,0.9c-2.65,3.14-6.17,4.71-10.56,4.71c-4.49,0-8.13-1.53-10.92-4.58    c-2.72-2.96-4.08-6.68-4.08-11.18c0-4.36,1.33-8.05,3.99-11.09c2.78-3.18,6.32-4.77,10.6-4.77c4.66,0,8.32,1.42,10.97,4.28    c0.29,0.32,0.43,0.59,0.43,0.84c0,0.27-0.49,1.28-1.5,3.03c-1,1.75-1.63,2.73-1.89,2.95c-0.12,0.11-0.27,0.17-0.43,0.17    c-0.07,0-0.43-0.29-1.08-0.86c-0.77-0.69-1.54-1.23-2.28-1.61c-1.13-0.57-2.32-0.86-3.54-0.86c-2.11,0-3.8,0.78-5.07,2.36    c-1.16,1.46-1.75,3.27-1.75,5.42c0,2.17,0.58,4,1.75,5.48c1.27,1.6,2.96,2.41,5.07,2.41c1.25,0,2.44-0.27,3.57-0.82    c0.73-0.35,1.48-0.86,2.25-1.5c0.63-0.54,0.98-0.81,1.05-0.81c0.15,0,0.29,0.08,0.43,0.23c0.23,0.26,0.85,1.15,1.88,2.68    C112.45,86.74,112.97,87.61,112.97,87.77L112.97,87.77z"/>
		<path class="st0" d="M143.91,77.59c0,4.47-1.43,8.21-4.3,11.24c-2.93,3.07-6.62,4.6-11.1,4.6c-4.45,0-8.14-1.55-11.08-4.64    c-2.88-3.03-4.32-6.76-4.32-11.2c0-4.45,1.44-8.2,4.32-11.24c2.94-3.11,6.62-4.66,11.08-4.66c4.42,0,8.11,1.55,11.05,4.66    C142.47,69.41,143.91,73.16,143.91,77.59L143.91,77.59z M135.73,77.54c0-2.15-0.66-3.98-1.97-5.48c-1.37-1.58-3.12-2.36-5.25-2.36    c-2.03,0-3.75,0.81-5.16,2.45c-1.37,1.58-2.06,3.39-2.06,5.43c0,2.19,0.64,4.02,1.92,5.48c1.36,1.53,3.12,2.3,5.29,2.3    c2.03,0,3.76-0.81,5.18-2.43C135.06,81.39,135.73,79.6,135.73,77.54L135.73,77.54z"/>
		<path class="st0" d="M173.92,77.39c0,4.21-1.36,7.86-4.08,10.96c-2.4,2.77-5.78,4.22-10.13,4.36c-0.83,0.03-3.13,0.04-6.89,0.04    c-0.7,0-1.76-0.02-3.18-0.07c-1.41-0.04-2.48-0.07-3.18-0.07c-0.41,0-0.63-0.16-0.63-0.49c0-1.58,0.07-3.95,0.18-7.11    c0.13-3.15,0.18-5.52,0.18-7.1c0-1.65-0.06-4.11-0.18-7.4c-0.12-3.29-0.18-5.75-0.18-7.39c0-0.3,0.21-0.48,0.63-0.54    c1.02-0.11,2.7-0.17,5.03-0.17c4.43,0,7.3,0.07,8.61,0.19c3.41,0.34,6.08,1.2,8.01,2.58c1.81,1.28,3.24,3.1,4.3,5.41    C173.42,72.82,173.92,75.07,173.92,77.39L173.92,77.39z M165.66,77.39c0-2.42-0.73-4.4-2.18-5.93c-1.47-1.59-3.41-2.38-5.83-2.38    c-2.22,0-3.32,0.29-3.32,0.88c0,0.84-0.02,2.12-0.04,3.81c-0.03,1.7-0.04,2.97-0.04,3.81c0,0.83,0.02,2.08,0.04,3.75    c0.03,1.67,0.04,2.93,0.04,3.78c0,0.62,1.15,0.92,3.45,0.92c2.49,0,4.45-0.83,5.87-2.47C164.99,82,165.66,79.94,165.66,77.39    L165.66,77.39z"/>
		<path class="st0" d="M198,85.95c0,0.62-0.13,1.75-0.37,3.4c-0.26,1.79-0.49,2.85-0.69,3.2c-0.17,0.27-0.41,0.41-0.71,0.41    c-0.13,0-0.35-0.02-0.65-0.07c-1.05-0.14-4.11-0.21-9.2-0.21c-1.11,0-2.76-0.01-4.94-0.02c-2.18-0.01-3.82-0.02-4.92-0.02    c-0.48,0-0.71-0.21-0.71-0.62c0-1.61,0.09-4.01,0.27-7.23c0.18-3.21,0.27-5.63,0.27-7.23c0-1.63-0.09-4.67-0.26-9.13    c-0.04-1.14-0.13-2.85-0.24-5.13l-0.02-0.3c-0.03-0.33,0.15-0.49,0.54-0.49c1.07,0,2.67,0.03,4.8,0.08    c2.14,0.06,3.74,0.09,4.8,0.09c1.05,0,2.63-0.03,4.75-0.09c2.11-0.05,3.7-0.08,4.75-0.08c0.74,0,1.18,0.28,1.3,0.84    c0.07,0.33,0.18,1.33,0.33,3c0.15,1.66,0.23,2.68,0.23,3.04c0,0.3-0.15,0.45-0.43,0.45c-0.09,0-0.24-0.01-0.45-0.02    c-3.83-0.32-7.27-0.48-10.32-0.48c-0.76,0-1.23,0.18-1.4,0.54c-0.07,0.17-0.11,0.72-0.11,1.65c0,0.98,0.15,1.62,0.43,1.94    c0.24,0.27,0.71,0.4,1.4,0.4c0.15,0,0.43-0.01,0.84-0.03c0.42-0.02,0.77-0.03,1.04-0.03c1.81,0,3.65-0.05,5.5-0.15    c0.16-0.01,0.55-0.05,1.19-0.11c0.49-0.05,0.88-0.08,1.16-0.08c0.35,0,0.52,0.16,0.52,0.49c0-0.3-0.13,0.8-0.39,3.29    c-0.12,1.15-0.17,2.3-0.17,3.44c0,0.29-0.21,0.43-0.63,0.43c0,0-0.65-0.07-1.95-0.22c-0.82-0.08-2.69-0.12-5.62-0.12h-2.28    c-0.59,0-0.94,0.14-1.04,0.43c-0.01,0.07-0.02,0.52-0.02,1.33c0,1.09,0.07,1.79,0.21,2.11c0.25,0.54,1.17,0.87,2.76,0.97    c-0.02,0,1.02,0,3.15,0c0.77,0,1.89-0.07,3.4-0.21c1.5-0.13,2.63-0.21,3.38-0.21C197.83,85.17,198,85.43,198,85.95L198,85.95z"/>
		<path class="st15" d="M279.59,86.48c0,0.59-0.12,1.68-0.36,3.27c-0.25,1.72-0.48,2.75-0.67,3.08c-0.16,0.26-0.4,0.4-0.69,0.4    c-0.12,0-0.34-0.02-0.63-0.06c-1.01-0.13-3.99-0.21-8.91-0.21c-1.07,0-2.67-0.01-4.79-0.02c-2.11-0.01-3.71-0.02-4.76-0.02    c-0.46,0-0.69-0.2-0.69-0.6c0-1.55,0.09-3.86,0.26-6.96c0.18-3.09,0.26-5.42,0.26-6.96c0-1.57-0.09-4.5-0.25-8.79    c-0.04-1.1-0.12-2.75-0.23-4.94l-0.02-0.29c-0.03-0.32,0.14-0.47,0.52-0.47c1.04,0,2.59,0.03,4.66,0.08    c2.07,0.06,3.62,0.08,4.66,0.08c1.01,0,2.55-0.03,4.6-0.08c2.05-0.05,3.59-0.08,4.61-0.08c0.72,0,1.14,0.27,1.26,0.8    c0.06,0.32,0.17,1.28,0.32,2.89c0.14,1.6,0.22,2.58,0.22,2.92c0,0.29-0.14,0.44-0.42,0.44c-0.09,0-0.23-0.01-0.44-0.02    c-3.71-0.3-7.05-0.46-10.01-0.46c-0.74,0-1.19,0.18-1.36,0.52c-0.07,0.16-0.11,0.69-0.11,1.59c0,0.94,0.14,1.56,0.42,1.86    c0.24,0.26,0.69,0.39,1.36,0.39c0.14,0,0.41-0.01,0.81-0.03c0.41-0.02,0.74-0.03,1.01-0.03c1.76,0,3.54-0.05,5.34-0.15    c0.16-0.01,0.54-0.05,1.15-0.11c0.48-0.05,0.85-0.08,1.13-0.08c0.34,0,0.51,0.16,0.51,0.47c0-0.29-0.13,0.77-0.38,3.16    c-0.11,1.11-0.16,2.21-0.16,3.31c0,0.28-0.21,0.42-0.61,0.42c0,0-0.63-0.07-1.89-0.21c-0.79-0.08-2.61-0.12-5.44-0.12h-2.21    c-0.57,0-0.91,0.13-1.01,0.41c-0.01,0.07-0.02,0.5-0.02,1.28c0,1.05,0.07,1.72,0.21,2.03c0.24,0.52,1.14,0.83,2.68,0.93    c-0.02,0,0.99,0,3.06,0c0.74,0,1.84-0.06,3.3-0.2c1.46-0.13,2.55-0.2,3.27-0.2C279.44,85.73,279.59,85.99,279.59,86.48    L279.59,86.48z"/>
		<path class="st15" d="M302.65,70.64c0,0.15-0.14,0.23-0.42,0.23c-1.04,0-2.63-0.09-4.76-0.27c-2.13-0.18-3.72-0.27-4.79-0.27    c-1.34,0-2.11,0.05-2.34,0.14c-0.51,0.23-0.77,0.9-0.77,1.99c0,1.31,0.34,2.05,1,2.23c0.29,0.07,0.71,0.11,1.28,0.11    c0.96,0,2.41-0.06,4.32-0.16c1.92-0.11,3.36-0.16,4.32-0.16c0.46,0,0.69,1.21,0.69,3.64c0,2.11-0.08,3.34-0.23,3.69    c-0.1,0.25-0.29,0.37-0.56,0.37c0.18,0-0.26-0.04-1.32-0.14c-1.49-0.14-3.75-0.2-6.78-0.2c-0.98,0-1.53,0.01-1.66,0.02    c-0.71,0.11-1.06,0.4-1.06,0.89c0,1.96,0.09,4.21,0.25,6.76c0.14,2.3,0.21,3.33,0.21,3.08c0,0.36-0.44,0.57-1.31,0.62    c0.24-0.01-0.39-0.02-1.86-0.02c-2.61,0-4.29-0.09-5.04-0.27c-0.41-0.1-0.61-0.31-0.61-0.64c0-1.53,0.05-3.83,0.16-6.9    c0.11-3.06,0.16-5.37,0.16-6.9c0-1.82-0.09-4.11-0.25-6.87c-0.25-4.26-0.39-6.55-0.4-6.86l-0.02-0.25    c-0.01-0.35,0.2-0.52,0.63-0.52c1.04,0,2.59,0.02,4.68,0.06c2.09,0.04,3.65,0.06,4.7,0.06c1.11,0,2.79-0.08,5.03-0.25    c2.24-0.17,3.91-0.25,5.04-0.25c0.69,0,1.09,0.28,1.17,0.85c0,0.59,0.03,1.48,0.09,2.67c0.02,0.3,0.11,0.89,0.27,1.76    C302.58,69.64,302.65,70.22,302.65,70.64L302.65,70.64z"/>
		<g>
			<path class="st15" d="M200.01,71.42c-1.22,4.11-0.88,8.33,0.98,12.56c1.93,4.36,4.84,7.41,8.67,9.08     c3.91,1.72,8.03,1.6,12.25-0.35c4.12-1.9,6.79-4.97,7.94-9.12c0.07-0.28,0.08-0.45,0.08-0.54c-0.2-0.16-0.78-0.59-2.45-1.68     c-1.72-1.1-2.47-1.54-2.79-1.72c-0.08,0.17-0.2,0.42-0.37,0.79c-0.51,1.08-1.06,2-1.66,2.73c-0.94,1.15-2.09,2.06-3.44,2.68     c-2.31,1.07-4.6,1.02-6.79-0.14c-1.97-1.05-3.5-2.78-4.54-5.13c-1.03-2.34-1.28-4.62-0.74-6.8c0.61-2.41,2.08-4.17,4.39-5.24     c1.33-0.61,2.76-0.89,4.26-0.82c1.01,0.06,2.08,0.27,3.19,0.63c0.45,0.14,0.74,0.22,0.92,0.27c0.07-0.3,0.22-1.15,0.44-3.46     c0.24-2.51,0.2-3.22,0.17-3.39c-0.03-0.04-0.13-0.13-0.39-0.24c-1.6-0.69-3.29-1.04-5.04-1.04c-2.26,0-4.64,0.57-7.11,1.72     C203.94,64.06,201.27,67.16,200.01,71.42z"/>
			<polygon class="st15" points="229.92,82.96 229.92,82.97 229.92,82.96    "/>
		</g>
		<g>
			<path class="st15" d="M255.43,85.53c-0.14-3.01-0.21-5.26-0.21-6.76c0-1.6,0.06-4,0.19-7.2c0.14-3.21,0.2-5.59,0.2-7.18     c0-0.33-0.2-0.49-0.61-0.49c-0.41,0-1.04,0.02-1.87,0.06c-0.83,0.04-1.44,0.06-1.85,0.06c-0.42,0-1.04-0.02-1.87-0.06     c-0.84-0.04-1.45-0.06-1.86-0.06c-0.34,0-0.52,0.21-0.52,0.64c0,1.01,0.05,2.51,0.15,4.53c0.09,2.01,0.14,3.5,0.14,4.5     c0,0.48-0.16,0.76-0.5,0.85c-0.48,0.11-2.21,0.16-5.19,0.16c-3.21,0-4.99-0.05-5.36-0.16c-0.26-0.08-0.39-0.37-0.39-0.85     c0-1.04,0.07-2.58,0.23-4.65c0.15-2.06,0.23-3.61,0.23-4.65c0-0.25-0.12-0.37-0.36-0.37c-0.44,0-1.11,0.02-2.01,0.06     c-0.9,0.04-1.58,0.06-2.02,0.06c-0.44,0-1.09-0.02-1.96-0.06c-0.87-0.04-1.52-0.06-1.96-0.06c-0.29,0-0.44,0.15-0.44,0.45     c0,1.6,0.07,4,0.21,7.21c0.14,3.21,0.21,5.61,0.21,7.21c0,0.33,0,0.7-0.01,1.1c0.1,0.07,0.21,0.13,0.32,0.2     c2.83,1.83,2.91,2.02,3.03,2.29c0.18,0.41,0.18,0.92,0,1.62c-0.72,2.61-1.97,4.83-3.75,6.65c-0.01,0.62-0.02,1.18-0.02,1.65     c0,0.36,0.2,0.57,0.61,0.64c0.51,0.08,1.71,0.13,3.59,0.13c2.18,0,3.49-0.04,3.94-0.13c0.38-0.07,0.56-0.31,0.56-0.73     c0-1.07-0.04-2.68-0.1-4.83c-0.07-2.14-0.11-3.75-0.11-4.83c0-0.55,0.15-0.86,0.46-0.93c0.49-0.11,2.19-0.16,5.11-0.16     c2.91,0,4.59,0.06,5.06,0.16c0.31,0.08,0.46,0.4,0.46,0.93c0,1.09-0.06,2.73-0.16,4.91c-0.11,2.19-0.16,3.83-0.16,4.91     c0,0.29,0.19,0.47,0.57,0.56c0.39,0.08,1.67,0.13,3.86,0.13c1.55,0,2.75-0.04,3.6-0.13c0.34-0.03,0.53-0.06,0.59-0.11     c0.12-0.06,0.19-0.25,0.19-0.54C255.65,90.78,255.58,88.54,255.43,85.53z"/>
			<polygon class="st15" points="229.92,82.96 229.92,82.97 229.92,82.96    "/>
		</g>
	</g>
	<path class="st2" d="M323.9,104.8c-0.11,0-0.2-0.41-0.2-0.91V43.75c0-0.5,0.09-0.91,0.2-0.91s0.2,0.41,0.2,0.91v60.14   C324.1,104.39,324.01,104.8,323.9,104.8z"/>
	<g>
		<path class="st2" d="M342.15,60.42c6.13,0.6,10.22,1.45,12.26,2.54c5.92,3.61,8.88,7.84,8.88,12.69c0,3.19-2.11,7.14-6.34,11.84    c-2.01,1.97-4.9,3.52-8.67,4.65l-0.21-0.21h-1.9l-3.38,1.9h-0.42c-1.22,0-1.99-0.99-2.33-2.96l0.21-0.85v-0.63l-0.21-0.21    l0.21-0.63l0.21-7.19h-0.21l0.21-0.63l-0.21-10.36c-0.14-0.85-0.35-1.27-0.63-1.27h-0.85l-1.48,0.63    c-1.55-0.53-2.33-1.3-2.33-2.33v-1.9c0-0.9,1.55-2.17,4.65-3.81C340.39,60.85,341.24,60.42,342.15,60.42z M345.75,67.19    l-0.21,0.21v2.96l0.21,4.86l-0.21,1.48l0.42,2.33l-0.21,1.27v2.11l0.21,0.85l-0.21,0.85v0.63c0.09,0.85,0.3,1.27,0.63,1.27h2.33    c3.07-0.81,5.89-3.35,8.46-7.61l0.42-1.9c0-4.35-3.31-7.38-9.94-9.09L345.75,67.19z"/>
		<path class="st2" d="M368.74,69.07c1.44,0,2.29,2.96,2.54,8.88l0.21,12.69c-0.32,2.26-1.45,3.38-3.38,3.38    c-1.55-0.97-2.33-2.1-2.33-3.38v-7.4l-0.21-1.27l0.21-0.21v-0.21c-0.28-4.69-0.56-7.58-0.85-8.67v-2.11    C364.94,69.63,366.2,69.07,368.74,69.07z M368.53,60.18c1.51,0,2.85,0.71,4.02,2.11c-0.3,3.1-1.43,4.65-3.38,4.65    c-1.16,0-2.22-1.2-3.17-3.59c0-1.97,0.85-2.96,2.54-2.96V60.18z"/>
		<path class="st2" d="M384.55,68.03h0.63c2.26,0,3.38,0.85,3.38,2.54v0.42c0,1.41-0.92,2.11-2.75,2.11l-1.27-0.42    c-1.55,0.37-2.33,0.93-2.33,1.69c0,0.33,1.69,2.8,5.08,7.4c1.55,2.84,2.33,4.67,2.33,5.5c0,2.47-1.76,4.44-5.29,5.92l-1.27,0.42    h-0.85c-4.51,0-7.4-1.97-8.67-5.92v-0.63c0.56-1.13,1.34-1.69,2.33-1.69c1.44,1.83,2.78,2.75,4.02,2.75    c2.26-0.14,3.38-0.49,3.38-1.06v-2.12l-4.23-5.92c-0.97-0.51-1.81-2.13-2.54-4.86C376.51,71.28,379.19,69.23,384.55,68.03z"/>
		<path class="st2" d="M397.66,73.77l1.06,0.21l1.27-0.21c2.11,1.09,3.17,2.29,3.17,3.59c0,1.55-0.56,2.68-1.69,3.38    c-1.2,0-2.04-0.21-2.54-0.63h-0.42c-1.55,1.44-2.33,3.42-2.33,5.92c0.49,1.97,1.48,2.96,2.96,2.96h1.9    c1.34,0,5.71-1.34,13.11-4.02l0.85-0.21c0.85,0.33,1.27,0.62,1.27,0.85v0.21c0,2.73-3.67,5.13-11,7.19    c-2.15,0.71-3.91,1.06-5.29,1.06c-2.77,0-5.3-1.13-7.61-3.38c-1.41-1.64-2.11-3.96-2.11-6.98c0-2.36,1.27-5.18,3.81-8.46    L397.66,73.77z"/>
		<path class="st2" d="M432.62,67.24h0.42c2.4,0.62,3.59,1.39,3.59,2.33l0.42,2.33c-0.51,1.67-0.86,4.07-1.06,7.19    c1.08,4.37,2.7,6.55,4.86,6.55c1.13,0.62,1.69,1.32,1.69,2.11v0.42c-0.83,1.69-1.89,2.54-3.17,2.54c-1.76,0-3.95-1.48-6.56-4.44    c0-0.32-0.35-0.53-1.06-0.63c-2.7,5.36-5.38,8.04-8.04,8.04c-2.11-0.83-3.45-2.03-4.02-3.59c-1.69-2.55-2.54-8.62-2.54-18.18    c0.25,0,0.46-0.35,0.63-1.06l2.75-0.42c1.97,1.08,2.96,2.06,2.96,2.96v0.63l-0.42,2.33v0.85c0.14,5.92,0.63,8.88,1.48,8.88    c1.9-2.06,3.81-6.92,5.71-14.59C430.3,68.65,431.07,67.24,432.62,67.24z"/>
		<path class="st2" d="M454.93,68.03h0.63c2.26,0,3.38,0.85,3.38,2.54v0.42c0,1.41-0.92,2.11-2.75,2.11l-1.27-0.42    c-1.55,0.37-2.33,0.93-2.33,1.69c0,0.33,1.69,2.8,5.08,7.4c1.55,2.84,2.33,4.67,2.33,5.5c0,2.47-1.76,4.44-5.29,5.92l-1.27,0.42    h-0.85c-4.51,0-7.4-1.97-8.67-5.92v-0.63c0.56-1.13,1.34-1.69,2.33-1.69c1.44,1.83,2.78,2.75,4.02,2.75    c2.26-0.14,3.38-0.49,3.38-1.06v-2.12l-4.23-5.92c-0.97-0.51-1.81-2.13-2.54-4.86C446.9,71.28,449.58,69.23,454.93,68.03z"/>
		<path class="st2" d="M471.82,68.03h0.63c2.26,0,3.38,0.85,3.38,2.54v0.42c0,1.41-0.92,2.11-2.75,2.11l-1.27-0.42    c-1.55,0.37-2.33,0.93-2.33,1.69c0,0.33,1.69,2.8,5.08,7.4c1.55,2.84,2.33,4.67,2.33,5.5c0,2.47-1.76,4.44-5.29,5.92l-1.27,0.42    h-0.85c-4.51,0-7.4-1.97-8.67-5.92v-0.63c0.56-1.13,1.34-1.69,2.33-1.69c1.44,1.83,2.78,2.75,4.02,2.75    c2.26-0.14,3.38-0.49,3.38-1.06v-2.12l-4.23-5.92c-0.97-0.51-1.81-2.13-2.54-4.86C463.79,71.28,466.46,69.23,471.82,68.03z"/>
	</g>
</g>
<g>
	<g>
		<path class="st16" d="M145.89,121.11h-1.17c-0.14,0-0.24-0.03-0.33-0.1c-0.08-0.07-0.15-0.16-0.19-0.27l-1.04-2.8h-5l-1.04,2.8    c-0.03,0.1-0.09,0.18-0.18,0.26c-0.09,0.08-0.2,0.11-0.33,0.11h-1.17l4.46-11.57h1.52L145.89,121.11z M142.75,116.81L141,112.1    c-0.05-0.14-0.11-0.3-0.16-0.49c-0.06-0.19-0.11-0.38-0.17-0.6c-0.11,0.44-0.22,0.8-0.33,1.09l-1.75,4.7H142.75z"/>
		<path class="st16" d="M148.15,114.11c0.17-0.2,0.35-0.38,0.55-0.54c0.19-0.16,0.4-0.3,0.61-0.42c0.21-0.11,0.44-0.2,0.68-0.27    c0.24-0.06,0.5-0.09,0.78-0.09c0.43,0,0.81,0.07,1.14,0.22c0.33,0.15,0.6,0.36,0.83,0.63c0.22,0.27,0.39,0.6,0.5,0.98    c0.12,0.38,0.17,0.81,0.17,1.27v5.21h-1.39v-5.21c0-0.62-0.14-1.1-0.41-1.44c-0.27-0.34-0.68-0.51-1.24-0.51    c-0.41,0-0.79,0.1-1.15,0.31c-0.36,0.2-0.68,0.48-0.98,0.83v6.02h-1.39v-8.18h0.83c0.2,0,0.32,0.1,0.37,0.3L148.15,114.11z"/>
		<path class="st16" d="M166.4,119.83l-0.01,1.28h-6.87v-11.57h6.87v1.28h-5.36v3.84h4.34v1.23h-4.34v3.95H166.4z"/>
		<path class="st16" d="M174.22,109.21v11.89h-0.83c-0.2,0-0.32-0.1-0.37-0.3l-0.13-0.99c-0.34,0.42-0.72,0.76-1.15,1.02    c-0.43,0.26-0.93,0.39-1.49,0.39c-0.45,0-0.86-0.09-1.23-0.27c-0.37-0.18-0.68-0.44-0.94-0.8c-0.26-0.35-0.46-0.79-0.6-1.31    c-0.14-0.52-0.21-1.12-0.21-1.8c0-0.6,0.08-1.16,0.23-1.68c0.16-0.52,0.38-0.97,0.67-1.35c0.29-0.38,0.65-0.68,1.07-0.9    c0.42-0.22,0.9-0.33,1.43-0.33c0.48,0,0.9,0.08,1.24,0.25c0.35,0.17,0.65,0.41,0.92,0.71v-4.53H174.22z M172.84,114.87    c-0.26-0.36-0.54-0.61-0.84-0.75c-0.3-0.14-0.64-0.21-1.01-0.21c-0.73,0-1.29,0.27-1.69,0.81c-0.39,0.55-0.59,1.32-0.59,2.33    c0,0.53,0.04,0.99,0.13,1.37c0.09,0.38,0.22,0.69,0.39,0.94c0.17,0.24,0.38,0.42,0.63,0.54c0.25,0.11,0.53,0.17,0.85,0.17    c0.46,0,0.86-0.11,1.19-0.32c0.34-0.22,0.65-0.52,0.94-0.91V114.87z"/>
		<path class="st16" d="M182.74,112.93v8.18h-0.82c-0.2,0-0.32-0.1-0.37-0.3l-0.11-0.88c-0.34,0.39-0.72,0.71-1.15,0.95    c-0.42,0.24-0.91,0.36-1.46,0.36c-0.43,0-0.81-0.07-1.14-0.22c-0.33-0.15-0.6-0.36-0.83-0.63c-0.22-0.27-0.39-0.6-0.5-0.98    c-0.11-0.38-0.17-0.8-0.17-1.27v-5.22h1.38v5.22c0,0.62,0.14,1.1,0.41,1.44c0.27,0.34,0.69,0.51,1.25,0.51    c0.41,0,0.79-0.1,1.15-0.3c0.36-0.2,0.68-0.48,0.98-0.84v-6.02H182.74z"/>
		<path class="st16" d="M190.26,114.38c-0.04,0.06-0.08,0.1-0.13,0.14c-0.04,0.03-0.1,0.05-0.17,0.05c-0.08,0-0.16-0.03-0.25-0.1    c-0.1-0.07-0.21-0.14-0.35-0.22s-0.31-0.15-0.51-0.22s-0.44-0.1-0.73-0.1c-0.39,0-0.73,0.07-1.03,0.21    c-0.29,0.14-0.54,0.35-0.74,0.62s-0.35,0.6-0.45,0.98c-0.1,0.38-0.15,0.81-0.15,1.29c0,0.49,0.06,0.94,0.17,1.32    c0.11,0.39,0.26,0.71,0.46,0.97c0.2,0.26,0.44,0.46,0.72,0.6c0.28,0.14,0.6,0.21,0.95,0.21c0.34,0,0.61-0.04,0.83-0.13    c0.22-0.08,0.4-0.18,0.54-0.28c0.14-0.1,0.26-0.19,0.36-0.28c0.1-0.08,0.19-0.12,0.28-0.12c0.12,0,0.2,0.04,0.27,0.14l0.39,0.52    c-0.17,0.22-0.37,0.41-0.58,0.57c-0.22,0.15-0.45,0.29-0.7,0.39c-0.25,0.1-0.52,0.18-0.79,0.23c-0.27,0.05-0.55,0.07-0.84,0.07    c-0.49,0-0.95-0.1-1.37-0.28c-0.42-0.19-0.79-0.46-1.1-0.82c-0.31-0.36-0.55-0.8-0.73-1.32c-0.17-0.52-0.26-1.12-0.26-1.78    c0-0.61,0.08-1.17,0.25-1.69c0.16-0.52,0.4-0.96,0.71-1.34s0.7-0.67,1.16-0.87c0.46-0.21,0.98-0.32,1.58-0.32    c0.56,0,1.04,0.09,1.47,0.28c0.42,0.18,0.79,0.45,1.12,0.79L190.26,114.38z"/>
		<path class="st16" d="M191.85,114.08c0.44-0.44,0.9-0.76,1.41-0.98s1.06-0.32,1.68-0.32c0.44,0,0.83,0.07,1.17,0.23    c0.34,0.15,0.63,0.36,0.87,0.63c0.23,0.27,0.41,0.6,0.53,0.98c0.12,0.38,0.18,0.8,0.18,1.26v5.23h-0.61    c-0.14,0-0.24-0.02-0.31-0.07c-0.07-0.05-0.13-0.14-0.17-0.27l-0.16-0.77c-0.21,0.2-0.41,0.37-0.6,0.53    c-0.2,0.15-0.41,0.28-0.62,0.39c-0.22,0.1-0.45,0.18-0.7,0.24c-0.25,0.06-0.52,0.09-0.82,0.09c-0.3,0-0.59-0.04-0.86-0.13    c-0.27-0.09-0.5-0.22-0.71-0.4c-0.2-0.17-0.36-0.4-0.47-0.67c-0.12-0.27-0.17-0.6-0.17-0.97c0-0.32,0.09-0.63,0.25-0.93    c0.17-0.3,0.45-0.56,0.83-0.79c0.38-0.23,0.88-0.42,1.5-0.57c0.62-0.15,1.37-0.23,2.27-0.25v-0.64c0-0.64-0.13-1.12-0.4-1.44    s-0.65-0.49-1.16-0.49c-0.34,0-0.63,0.04-0.86,0.13c-0.23,0.09-0.43,0.19-0.6,0.3c-0.17,0.11-0.31,0.21-0.44,0.3    c-0.12,0.09-0.24,0.13-0.36,0.13c-0.09,0-0.17-0.02-0.24-0.08c-0.07-0.05-0.12-0.11-0.17-0.19L191.85,114.08z M196.32,117.42    c-0.64,0.02-1.18,0.07-1.63,0.16c-0.45,0.09-0.81,0.19-1.1,0.33c-0.28,0.14-0.49,0.29-0.62,0.48c-0.13,0.18-0.19,0.39-0.19,0.61    c0,0.21,0.03,0.4,0.1,0.56s0.16,0.28,0.28,0.38c0.12,0.1,0.25,0.17,0.41,0.22c0.16,0.05,0.33,0.07,0.51,0.07    c0.24,0,0.47-0.02,0.67-0.08c0.2-0.05,0.39-0.13,0.57-0.22c0.18-0.1,0.35-0.21,0.51-0.35c0.17-0.14,0.33-0.29,0.48-0.46V117.42z"/>
		<path class="st16" d="M201.94,121.24c-0.62,0-1.1-0.18-1.44-0.54c-0.33-0.36-0.5-0.88-0.5-1.56v-5.01h-0.95    c-0.08,0-0.15-0.02-0.21-0.08c-0.06-0.05-0.09-0.13-0.09-0.24v-0.57l1.29-0.17l0.32-2.53c0.02-0.08,0.05-0.15,0.1-0.2    c0.06-0.05,0.13-0.08,0.21-0.08h0.7v2.82h2.28v1.04h-2.28v4.91c0,0.35,0.08,0.6,0.24,0.77c0.16,0.17,0.37,0.25,0.62,0.25    c0.15,0,0.27-0.02,0.38-0.06c0.11-0.04,0.2-0.08,0.28-0.13c0.08-0.05,0.14-0.1,0.2-0.14c0.06-0.04,0.1-0.06,0.14-0.06    c0.07,0,0.14,0.05,0.19,0.14l0.41,0.69c-0.24,0.23-0.53,0.41-0.86,0.55C202.65,121.17,202.3,121.24,201.94,121.24z"/>
	</g>
	<g>
		<path class="st16" d="M242.53,121.11h-1.51v-11.57h1.51V121.11z"/>
		<path class="st16" d="M246.08,114.11c0.17-0.2,0.35-0.38,0.55-0.54c0.19-0.16,0.4-0.3,0.61-0.42c0.21-0.11,0.44-0.2,0.68-0.27    c0.24-0.06,0.5-0.09,0.78-0.09c0.43,0,0.81,0.07,1.14,0.22c0.33,0.15,0.6,0.36,0.83,0.63c0.22,0.27,0.39,0.6,0.5,0.98    c0.12,0.38,0.17,0.81,0.17,1.27v5.21h-1.39v-5.21c0-0.62-0.14-1.1-0.41-1.44c-0.27-0.34-0.68-0.51-1.24-0.51    c-0.41,0-0.79,0.1-1.15,0.31c-0.36,0.2-0.68,0.48-0.98,0.83v6.02h-1.39v-8.18h0.83c0.2,0,0.32,0.1,0.37,0.3L246.08,114.11z"/>
		<path class="st16" d="M255.06,110.36c0,0.14-0.02,0.27-0.08,0.39c-0.06,0.12-0.13,0.23-0.22,0.32c-0.09,0.1-0.2,0.17-0.32,0.22    c-0.12,0.05-0.25,0.08-0.39,0.08s-0.26-0.03-0.38-0.08c-0.12-0.06-0.22-0.13-0.31-0.22c-0.09-0.09-0.16-0.2-0.21-0.32    c-0.05-0.12-0.08-0.25-0.08-0.39c0-0.14,0.03-0.27,0.08-0.4c0.05-0.13,0.12-0.24,0.21-0.33c0.09-0.09,0.19-0.17,0.31-0.22    c0.12-0.06,0.24-0.08,0.38-0.08s0.26,0.02,0.39,0.08c0.12,0.05,0.23,0.13,0.32,0.22c0.09,0.1,0.16,0.21,0.22,0.33    C255.04,110.09,255.06,110.22,255.06,110.36z M254.77,112.93v8.18h-1.38v-8.18H254.77z"/>
	</g>
	<g>
		<path class="st16" d="M259.65,121.24c-0.62,0-1.1-0.18-1.44-0.54c-0.33-0.36-0.5-0.88-0.5-1.56v-5.01h-0.95    c-0.08,0-0.15-0.02-0.21-0.08c-0.06-0.05-0.09-0.13-0.09-0.24v-0.57l1.29-0.17l0.32-2.53c0.02-0.08,0.05-0.15,0.1-0.2    c0.06-0.05,0.13-0.08,0.21-0.08h0.7v2.82h2.28v1.04h-2.28v4.91c0,0.35,0.08,0.6,0.24,0.77c0.16,0.17,0.37,0.25,0.62,0.25    c0.15,0,0.27-0.02,0.38-0.06c0.11-0.04,0.2-0.08,0.28-0.13c0.08-0.05,0.14-0.1,0.2-0.14c0.06-0.04,0.1-0.06,0.14-0.06    c0.07,0,0.14,0.05,0.19,0.14l0.41,0.69c-0.24,0.23-0.53,0.41-0.86,0.55C260.35,121.17,260.01,121.24,259.65,121.24z"/>
	</g>
	<g>
		<path class="st16" d="M264.72,110.36c0,0.14-0.02,0.27-0.08,0.39c-0.06,0.12-0.13,0.23-0.22,0.32c-0.09,0.1-0.2,0.17-0.32,0.22    c-0.12,0.05-0.25,0.08-0.39,0.08s-0.26-0.03-0.38-0.08c-0.12-0.06-0.22-0.13-0.31-0.22c-0.09-0.09-0.16-0.2-0.21-0.32    c-0.05-0.12-0.08-0.25-0.08-0.39c0-0.14,0.03-0.27,0.08-0.4c0.05-0.13,0.12-0.24,0.21-0.33c0.09-0.09,0.19-0.17,0.31-0.22    c0.12-0.06,0.24-0.08,0.38-0.08s0.26,0.02,0.39,0.08c0.12,0.05,0.23,0.13,0.32,0.22c0.09,0.1,0.16,0.21,0.22,0.33    C264.69,110.09,264.72,110.22,264.72,110.36z M264.42,112.93v8.18h-1.38v-8.18H264.42z"/>
	</g>
	<g>
		<g>
			<path class="st16" d="M266.53,114.08c0.44-0.44,0.9-0.76,1.41-0.98s1.06-0.32,1.68-0.32c0.44,0,0.83,0.07,1.17,0.23     c0.34,0.15,0.63,0.36,0.87,0.63c0.23,0.27,0.41,0.6,0.53,0.98c0.12,0.38,0.18,0.8,0.18,1.26v5.23h-0.61     c-0.14,0-0.24-0.02-0.31-0.07c-0.07-0.05-0.13-0.14-0.17-0.27l-0.16-0.77c-0.21,0.2-0.41,0.37-0.6,0.53     c-0.2,0.15-0.41,0.28-0.62,0.39c-0.22,0.1-0.45,0.18-0.7,0.24c-0.25,0.06-0.52,0.09-0.82,0.09c-0.3,0-0.59-0.04-0.86-0.13     c-0.27-0.09-0.5-0.22-0.71-0.4c-0.2-0.17-0.36-0.4-0.47-0.67c-0.12-0.27-0.17-0.6-0.17-0.97c0-0.32,0.09-0.63,0.25-0.93     c0.17-0.3,0.45-0.56,0.83-0.79c0.38-0.23,0.88-0.42,1.5-0.57c0.62-0.15,1.37-0.23,2.27-0.25v-0.64c0-0.64-0.13-1.12-0.4-1.44     s-0.65-0.49-1.16-0.49c-0.34,0-0.63,0.04-0.86,0.13c-0.23,0.09-0.43,0.19-0.6,0.3c-0.17,0.11-0.31,0.21-0.44,0.3     c-0.12,0.09-0.24,0.13-0.36,0.13c-0.09,0-0.17-0.02-0.24-0.08c-0.07-0.05-0.12-0.11-0.17-0.19L266.53,114.08z M271,117.42     c-0.64,0.02-1.18,0.07-1.63,0.16c-0.45,0.09-0.81,0.19-1.1,0.33c-0.28,0.14-0.49,0.29-0.62,0.48c-0.13,0.18-0.19,0.39-0.19,0.61     c0,0.21,0.03,0.4,0.1,0.56s0.16,0.28,0.28,0.38c0.12,0.1,0.25,0.17,0.41,0.22c0.16,0.05,0.33,0.07,0.51,0.07     c0.24,0,0.47-0.02,0.67-0.08c0.2-0.05,0.39-0.13,0.57-0.22c0.18-0.1,0.35-0.21,0.51-0.35c0.17-0.14,0.33-0.29,0.48-0.46V117.42z"/>
			<path class="st16" d="M276.63,121.24c-0.62,0-1.1-0.18-1.44-0.54c-0.33-0.36-0.5-0.88-0.5-1.56v-5.01h-0.95     c-0.08,0-0.15-0.02-0.21-0.08c-0.06-0.05-0.09-0.13-0.09-0.24v-0.57l1.29-0.17l0.32-2.53c0.02-0.08,0.05-0.15,0.1-0.2     c0.06-0.05,0.13-0.08,0.21-0.08h0.7v2.82h2.28v1.04h-2.28v4.91c0,0.35,0.08,0.6,0.24,0.77c0.16,0.17,0.37,0.25,0.62,0.25     c0.15,0,0.27-0.02,0.38-0.06c0.11-0.04,0.2-0.08,0.28-0.13c0.08-0.05,0.14-0.1,0.2-0.14c0.06-0.04,0.1-0.06,0.14-0.06     c0.07,0,0.14,0.05,0.19,0.14l0.41,0.69c-0.24,0.23-0.53,0.41-0.86,0.55C277.33,121.17,276.99,121.24,276.63,121.24z"/>
		</g>
		<g>
			<path class="st16" d="M281.75,110.36c0,0.14-0.02,0.27-0.08,0.39s-0.13,0.23-0.22,0.32c-0.09,0.1-0.2,0.17-0.32,0.22     c-0.12,0.05-0.25,0.08-0.39,0.08s-0.26-0.03-0.38-0.08c-0.12-0.06-0.22-0.13-0.31-0.22c-0.09-0.09-0.16-0.2-0.21-0.32     c-0.05-0.12-0.08-0.25-0.08-0.39c0-0.14,0.03-0.27,0.08-0.4c0.05-0.13,0.12-0.24,0.21-0.33c0.09-0.09,0.19-0.17,0.31-0.22     c0.12-0.06,0.24-0.08,0.38-0.08s0.26,0.02,0.39,0.08c0.12,0.05,0.23,0.13,0.32,0.22c0.09,0.1,0.16,0.21,0.22,0.33     C281.73,110.09,281.75,110.22,281.75,110.36z M281.46,112.93v8.18h-1.38v-8.18H281.46z"/>
			<path class="st16" d="M290.33,112.93l-3.21,8.18h-1.25l-3.21-8.18h1.13c0.11,0,0.21,0.03,0.28,0.09     c0.07,0.06,0.12,0.13,0.15,0.21l2,5.26c0.06,0.2,0.12,0.39,0.16,0.58c0.05,0.19,0.09,0.38,0.13,0.56     c0.04-0.19,0.09-0.38,0.13-0.56c0.05-0.19,0.1-0.38,0.17-0.58l2.02-5.26c0.03-0.09,0.08-0.16,0.16-0.21     c0.07-0.06,0.16-0.09,0.26-0.09H290.33z"/>
			<path class="st16" d="M297.62,119.96c-0.17,0.22-0.37,0.4-0.61,0.56c-0.24,0.16-0.49,0.29-0.77,0.39     c-0.27,0.1-0.55,0.18-0.84,0.23c-0.29,0.05-0.58,0.08-0.86,0.08c-0.55,0-1.05-0.1-1.51-0.29c-0.46-0.19-0.86-0.47-1.19-0.84     c-0.33-0.37-0.59-0.83-0.78-1.37c-0.19-0.54-0.28-1.17-0.28-1.87c0-0.57,0.09-1.1,0.25-1.6c0.17-0.49,0.41-0.92,0.73-1.29     c0.32-0.36,0.7-0.65,1.16-0.86c0.45-0.21,0.97-0.31,1.54-0.31c0.47,0,0.91,0.08,1.31,0.25c0.4,0.17,0.75,0.4,1.04,0.71     c0.29,0.31,0.52,0.69,0.69,1.15c0.17,0.45,0.25,0.97,0.25,1.55c0,0.23-0.02,0.38-0.07,0.45c-0.05,0.07-0.14,0.11-0.26,0.11h-5.27     c0.02,0.52,0.08,0.97,0.21,1.35c0.12,0.38,0.29,0.7,0.51,0.96c0.22,0.25,0.48,0.44,0.78,0.57c0.3,0.13,0.64,0.19,1.01,0.19     c0.35,0,0.65-0.04,0.9-0.12c0.25-0.09,0.47-0.17,0.65-0.27c0.18-0.1,0.33-0.18,0.46-0.27c0.12-0.08,0.23-0.12,0.31-0.12     c0.12,0,0.2,0.04,0.27,0.14L297.62,119.96z M296.5,116.12c0-0.33-0.04-0.64-0.14-0.91c-0.09-0.28-0.22-0.52-0.4-0.72     c-0.17-0.2-0.39-0.36-0.64-0.47c-0.25-0.11-0.53-0.17-0.85-0.17c-0.67,0-1.19,0.2-1.58,0.6c-0.39,0.4-0.63,0.96-0.72,1.67H296.5z     "/>
		</g>
	</g>
	<g>
		<path class="st16" d="M212.23,112.8c0.58,0,1.1,0.1,1.56,0.3c0.46,0.2,0.86,0.48,1.18,0.85c0.33,0.37,0.58,0.81,0.75,1.33    c0.17,0.52,0.26,1.1,0.26,1.74c0,0.64-0.09,1.23-0.26,1.74c-0.17,0.52-0.42,0.96-0.75,1.33c-0.33,0.37-0.72,0.65-1.18,0.84    c-0.46,0.2-0.98,0.29-1.56,0.29c-0.58,0-1.1-0.1-1.57-0.29c-0.46-0.2-0.86-0.48-1.18-0.84c-0.33-0.37-0.58-0.81-0.75-1.33    c-0.17-0.52-0.26-1.1-0.26-1.74c0-0.64,0.09-1.22,0.26-1.74c0.17-0.52,0.42-0.96,0.75-1.33c0.33-0.37,0.72-0.65,1.18-0.85    C211.12,112.9,211.65,112.8,212.23,112.8z M212.23,120.1c0.78,0,1.36-0.27,1.74-0.81c0.38-0.54,0.58-1.3,0.58-2.27    c0-0.97-0.19-1.73-0.58-2.28c-0.38-0.54-0.96-0.81-1.74-0.81c-0.39,0-0.74,0.07-1.03,0.21c-0.29,0.14-0.54,0.34-0.73,0.6    c-0.2,0.26-0.34,0.59-0.44,0.97c-0.1,0.39-0.14,0.82-0.14,1.3c0,0.97,0.19,1.72,0.58,2.27    C210.85,119.83,211.44,120.1,212.23,120.1z"/>
		<path class="st16" d="M218.88,114.11c0.17-0.2,0.35-0.38,0.55-0.54c0.19-0.16,0.4-0.3,0.61-0.42c0.21-0.11,0.44-0.2,0.68-0.27    c0.24-0.06,0.5-0.09,0.78-0.09c0.43,0,0.81,0.07,1.14,0.22c0.33,0.15,0.6,0.36,0.83,0.63c0.22,0.27,0.39,0.6,0.5,0.98    c0.12,0.38,0.17,0.81,0.17,1.27v5.21h-1.39v-5.21c0-0.62-0.14-1.1-0.41-1.44c-0.27-0.34-0.68-0.51-1.24-0.51    c-0.41,0-0.79,0.1-1.15,0.31c-0.36,0.2-0.68,0.48-0.98,0.83v6.02h-1.39v-8.18h0.83c0.2,0,0.32,0.1,0.37,0.3L218.88,114.11z"/>
		<path class="st16" d="M225.9,114.08c0.44-0.44,0.9-0.76,1.41-0.98s1.06-0.32,1.68-0.32c0.44,0,0.83,0.07,1.17,0.23    c0.34,0.15,0.63,0.36,0.87,0.63c0.23,0.27,0.41,0.6,0.53,0.98c0.12,0.38,0.18,0.8,0.18,1.26v5.23h-0.61    c-0.14,0-0.24-0.02-0.31-0.07c-0.07-0.05-0.13-0.14-0.17-0.27l-0.16-0.77c-0.21,0.2-0.41,0.37-0.6,0.53    c-0.2,0.15-0.41,0.28-0.62,0.39c-0.22,0.1-0.45,0.18-0.7,0.24c-0.25,0.06-0.52,0.09-0.82,0.09c-0.3,0-0.59-0.04-0.86-0.13    c-0.27-0.09-0.5-0.22-0.71-0.4c-0.2-0.17-0.36-0.4-0.47-0.67c-0.12-0.27-0.17-0.6-0.17-0.97c0-0.32,0.09-0.63,0.25-0.93    c0.17-0.3,0.45-0.56,0.83-0.79c0.38-0.23,0.88-0.42,1.5-0.57c0.62-0.15,1.37-0.23,2.27-0.25v-0.64c0-0.64-0.13-1.12-0.4-1.44    s-0.65-0.49-1.16-0.49c-0.34,0-0.63,0.04-0.86,0.13c-0.23,0.09-0.43,0.19-0.6,0.3c-0.17,0.11-0.31,0.21-0.44,0.3    c-0.12,0.09-0.24,0.13-0.36,0.13c-0.09,0-0.17-0.02-0.24-0.08c-0.07-0.05-0.12-0.11-0.17-0.19L225.9,114.08z M230.37,117.42    c-0.64,0.02-1.18,0.07-1.63,0.16c-0.45,0.09-0.81,0.19-1.1,0.33c-0.28,0.14-0.49,0.29-0.62,0.48c-0.13,0.18-0.19,0.39-0.19,0.61    c0,0.21,0.03,0.4,0.1,0.56s0.16,0.28,0.28,0.38c0.12,0.1,0.25,0.17,0.41,0.22c0.16,0.05,0.33,0.07,0.51,0.07    c0.24,0,0.47-0.02,0.67-0.08c0.2-0.05,0.39-0.13,0.57-0.22c0.18-0.1,0.35-0.21,0.51-0.35c0.17-0.14,0.33-0.29,0.48-0.46V117.42z"/>
		<path class="st16" d="M235.11,109.21v11.89h-1.38v-11.89H235.11z"/>
	</g>
	<g>
		<path class="st16" d="M207.01,110.36c0,0.14-0.02,0.27-0.08,0.39c-0.06,0.12-0.13,0.23-0.22,0.32c-0.09,0.1-0.2,0.17-0.32,0.22    c-0.12,0.05-0.25,0.08-0.39,0.08s-0.26-0.03-0.38-0.08c-0.12-0.06-0.22-0.13-0.31-0.22c-0.09-0.09-0.16-0.2-0.21-0.32    c-0.05-0.12-0.08-0.25-0.08-0.39c0-0.14,0.03-0.27,0.08-0.4c0.05-0.13,0.12-0.24,0.21-0.33c0.09-0.09,0.19-0.17,0.31-0.22    c0.12-0.06,0.24-0.08,0.38-0.08s0.26,0.02,0.39,0.08c0.12,0.05,0.23,0.13,0.32,0.22c0.09,0.1,0.16,0.21,0.22,0.33    C206.99,110.09,207.01,110.22,207.01,110.36z M206.72,112.93v8.18h-1.38v-8.18H206.72z"/>
	</g>
</g>
</svg>
